HIERARCHY
ROOT mixamorig:Hips
{
	OFFSET 0.000000 87.162163 2.265141
	CHANNELS 6 Xposition Yposition Zposition Zrotation Yrotation Xrotation 
	JOINT mixamorig:Spine
	{
		OFFSET -0.000000 7.848404 3.918341
		CHANNELS 3 Zrotation Yrotation Xrotation
		JOINT mixamorig:Spine1
		{
			OFFSET 0.000000 11.439644 0.688892
			CHANNELS 3 Zrotation Yrotation Xrotation
			JOINT mixamorig:Spine2
			{
				OFFSET 0.000000 13.053996 -1.801730
				CHANNELS 3 Zrotation Yrotation Xrotation
				JOINT mixamorig:Neck
				{
					OFFSET 0.000000 14.136906 -5.258943
					CHANNELS 3 Zrotation Yrotation Xrotation
					JOINT mixamorig:Head
					{
						OFFSET -0.000000 10.430705 -0.827983
						CHANNELS 3 Zrotation Yrotation Xrotation
						JOINT mixamorig:HeadTop_End
						{
							OFFSET 0.000000 21.740402 -0.604783
							CHANNELS 3 Zrotation Yrotation Xrotation
							End Site
							{
								OFFSET 0.000000 0.000000 0.000000
							}
						}
						JOINT mixamorig:Visor1
						{
							OFFSET -0.003251 25.655350 16.551157
							CHANNELS 3 Zrotation Yrotation Xrotation
							End Site
							{
								OFFSET 0.000000 0.000000 0.000000
							}
						}
						JOINT mixamorig:HairMidA1
						{
							OFFSET -0.001033 31.569519 8.438098
							CHANNELS 3 Zrotation Yrotation Xrotation
							End Site
							{
								OFFSET 0.000000 0.000000 0.000000
							}
						}
						JOINT mixamorig:HairMidB1
						{
							OFFSET 0.003633 33.293411 -8.388910
							CHANNELS 3 Zrotation Yrotation Xrotation
							End Site
							{
								OFFSET 0.000000 0.000000 0.000000
							}
						}
						JOINT mixamorig:HairMidC1
						{
							OFFSET 0.006163 27.975342 -17.374311
							CHANNELS 3 Zrotation Yrotation Xrotation
							End Site
							{
								OFFSET 0.000000 0.000000 0.000000
							}
						}
						JOINT mixamorig:HairMidD1
						{
							OFFSET 0.007279 17.872238 -21.168732
							CHANNELS 3 Zrotation Yrotation Xrotation
							End Site
							{
								OFFSET 0.000000 0.000000 0.000000
							}
						}
						JOINT mixamorig:HairMidE1
						{
							OFFSET 4.865269 3.498810 -14.368998
							CHANNELS 3 Zrotation Yrotation Xrotation
							End Site
							{
								OFFSET 0.000000 0.000000 0.000000
							}
						}
						JOINT mixamorig:HairMidF1
						{
							OFFSET -4.854524 3.498764 -14.371698
							CHANNELS 3 Zrotation Yrotation Xrotation
							End Site
							{
								OFFSET 0.000000 0.000000 0.000000
							}
						}
						JOINT mixamorig:HairLeftA1
						{
							OFFSET 14.859479 25.730682 2.624092
							CHANNELS 3 Zrotation Yrotation Xrotation
							End Site
							{
								OFFSET 0.000000 0.000000 0.000000
							}
						}
						JOINT mixamorig:HairLeftB1
						{
							OFFSET 12.159076 29.273544 -8.730730
							CHANNELS 3 Zrotation Yrotation Xrotation
							End Site
							{
								OFFSET 0.000000 0.000000 0.000000
							}
						}
						JOINT mixamorig:HairLeftC1
						{
							OFFSET 15.254454 15.944077 2.910579
							CHANNELS 3 Zrotation Yrotation Xrotation
							End Site
							{
								OFFSET 0.000000 0.000000 0.000000
							}
						}
						JOINT mixamorig:HairLeftD1
						{
							OFFSET 15.641331 18.421539 -7.552444
							CHANNELS 3 Zrotation Yrotation Xrotation
							End Site
							{
								OFFSET 0.000000 0.000000 0.000000
							}
						}
						JOINT mixamorig:HairLeftE1
						{
							OFFSET 9.271540 17.899170 -18.316099
							CHANNELS 3 Zrotation Yrotation Xrotation
							End Site
							{
								OFFSET 0.000000 0.000000 0.000000
							}
						}
						JOINT mixamorig:HairLeftF1
						{
							OFFSET 10.743909 4.937805 -9.667402
							CHANNELS 3 Zrotation Yrotation Xrotation
							End Site
							{
								OFFSET 0.000000 0.000000 0.000000
							}
						}
						JOINT mixamorig:HairRightA1
						{
							OFFSET -14.858240 25.730515 2.615833
							CHANNELS 3 Zrotation Yrotation Xrotation
							End Site
							{
								OFFSET 0.000000 0.000000 0.000000
							}
						}
						JOINT mixamorig:HairRightB1
						{
							OFFSET -12.151567 29.273392 -8.737486
							CHANNELS 3 Zrotation Yrotation Xrotation
							End Site
							{
								OFFSET 0.000000 0.000000 0.000000
							}
						}
						JOINT mixamorig:HairRightC1
						{
							OFFSET -15.253256 15.943893 2.902101
							CHANNELS 3 Zrotation Yrotation Xrotation
							End Site
							{
								OFFSET 0.000000 0.000000 0.000000
							}
						}
						JOINT mixamorig:HairRightD1
						{
							OFFSET -15.634346 18.421341 -7.561136
							CHANNELS 3 Zrotation Yrotation Xrotation
							End Site
							{
								OFFSET 0.000000 0.000000 0.000000
							}
						}
						JOINT mixamorig:HairRightE1
						{
							OFFSET -9.258568 17.899063 -18.321249
							CHANNELS 3 Zrotation Yrotation Xrotation
							End Site
							{
								OFFSET 0.000000 0.000000 0.000000
							}
						}
						JOINT mixamorig:HairRightF1
						{
							OFFSET -10.735586 4.937683 -9.673372
							CHANNELS 3 Zrotation Yrotation Xrotation
							End Site
							{
								OFFSET 0.000000 0.000000 0.000000
							}
						}
					}
				}
				JOINT mixamorig:LeftShoulder
				{
					OFFSET 4.765166 7.323872 -1.972899
					CHANNELS 3 Zrotation Yrotation Xrotation
					JOINT mixamorig:LeftArm
					{
						OFFSET 8.083765 0.939486 -2.176468
						CHANNELS 3 Zrotation Yrotation Xrotation
						JOINT mixamorig:LeftForeArm
						{
							OFFSET 31.292164 -0.000004 -0.000001
							CHANNELS 3 Zrotation Yrotation Xrotation
							JOINT mixamorig:LeftHand
							{
								OFFSET 31.723660 0.000001 -0.000001
								CHANNELS 3 Zrotation Yrotation Xrotation
								JOINT mixamorig:LeftHandThumb1
								{
									OFFSET 2.902626 -2.560440 4.416488
									CHANNELS 3 Zrotation Yrotation Xrotation
									JOINT mixamorig:LeftHandThumb2
									{
										OFFSET 2.339828 -1.345810 1.355842
										CHANNELS 3 Zrotation Yrotation Xrotation
										JOINT mixamorig:LeftHandThumb3
										{
											OFFSET 2.219818 -1.276772 1.286309
											CHANNELS 3 Zrotation Yrotation Xrotation
											JOINT mixamorig:LeftHandThumb4
											{
												OFFSET 2.285744 -1.314713 1.324502
												CHANNELS 3 Zrotation Yrotation Xrotation
												End Site
												{
													OFFSET 0.000000 0.000000 0.000000
												}
											}
										}
									}
								}
								JOINT mixamorig:LeftHandIndex1
								{
									OFFSET 8.585075 -0.644569 3.119858
									CHANNELS 3 Zrotation Yrotation Xrotation
									JOINT mixamorig:LeftHandIndex2
									{
										OFFSET 3.348534 0.000000 0.000030
										CHANNELS 3 Zrotation Yrotation Xrotation
										JOINT mixamorig:LeftHandIndex3
										{
											OFFSET 3.314537 0.000008 0.000047
											CHANNELS 3 Zrotation Yrotation Xrotation
											JOINT mixamorig:LeftHandIndex4
											{
												OFFSET 2.937866 0.000000 0.000000
												CHANNELS 3 Zrotation Yrotation Xrotation
												End Site
												{
													OFFSET 0.000000 0.000000 0.000000
												}
											}
										}
									}
								}
								JOINT mixamorig:LeftHandMiddle1
								{
									OFFSET 8.140663 -0.002594 -0.000072
									CHANNELS 3 Zrotation Yrotation Xrotation
									JOINT mixamorig:LeftHandMiddle2
									{
										OFFSET 4.166290 -0.000015 0.000030
										CHANNELS 3 Zrotation Yrotation Xrotation
										JOINT mixamorig:LeftHandMiddle3
										{
											OFFSET 3.018105 0.000053 0.000032
											CHANNELS 3 Zrotation Yrotation Xrotation
											JOINT mixamorig:LeftHandMiddle4
											{
												OFFSET 4.093719 0.000000 -0.000000
												CHANNELS 3 Zrotation Yrotation Xrotation
												End Site
												{
													OFFSET 0.000000 0.000000 0.000000
												}
											}
										}
									}
								}
								JOINT mixamorig:LeftHandRing1
								{
									OFFSET 8.587761 -0.034004 -2.884224
									CHANNELS 3 Zrotation Yrotation Xrotation
									JOINT mixamorig:LeftHandRing2
									{
										OFFSET 3.671196 0.000023 0.000002
										CHANNELS 3 Zrotation Yrotation Xrotation
										JOINT mixamorig:LeftHandRing3
										{
											OFFSET 2.728828 0.000015 0.000020
											CHANNELS 3 Zrotation Yrotation Xrotation
											JOINT mixamorig:LeftHandRing4
											{
												OFFSET 3.622383 0.000000 -0.000000
												CHANNELS 3 Zrotation Yrotation Xrotation
												End Site
												{
													OFFSET 0.000000 0.000000 0.000000
												}
											}
										}
									}
								}
								JOINT mixamorig:LeftHandPinky1
								{
									OFFSET 7.870621 -0.677841 -5.213132
									CHANNELS 3 Zrotation Yrotation Xrotation
									JOINT mixamorig:LeftHandPinky2
									{
										OFFSET 3.068542 0.000000 0.000007
										CHANNELS 3 Zrotation Yrotation Xrotation
										JOINT mixamorig:LeftHandPinky3
										{
											OFFSET 2.395981 0.000023 0.000042
											CHANNELS 3 Zrotation Yrotation Xrotation
											JOINT mixamorig:LeftHandPinky4
											{
												OFFSET 2.849014 0.000000 0.000000
												CHANNELS 3 Zrotation Yrotation Xrotation
												End Site
												{
													OFFSET 0.000000 0.000000 0.000000
												}
											}
										}
									}
								}
							}
							JOINT mixamorig:Left_Sleeve
							{
								OFFSET 19.653255 0.000000 -0.000001
								CHANNELS 3 Zrotation Yrotation Xrotation
								End Site
								{
									OFFSET 0.000000 0.000000 0.000000
								}
							}
						}
					}
				}
				JOINT mixamorig:Whistle0
				{
					OFFSET -0.000105 11.453896 -0.009937
					CHANNELS 3 Zrotation Yrotation Xrotation
					JOINT mixamorig:Whistle1
					{
						OFFSET -0.002040 -6.349861 7.479822
						CHANNELS 3 Zrotation Yrotation Xrotation
						JOINT mixamorig:Whistle2
						{
							OFFSET -0.001261 -8.217644 4.717566
							CHANNELS 3 Zrotation Yrotation Xrotation
							End Site
							{
								OFFSET 0.000000 0.000000 0.000000
							}
						}
					}
				}
				JOINT mixamorig:Right_Breast1
				{
					OFFSET -5.315914 3.102715 3.080552
					CHANNELS 3 Zrotation Yrotation Xrotation
					End Site
					{
						OFFSET 0.000000 0.000000 0.000000
					}
				}
				JOINT mixamorig:Left_Breast1
				{
					OFFSET 5.314172 3.102776 3.083506
					CHANNELS 3 Zrotation Yrotation Xrotation
					End Site
					{
						OFFSET 0.000000 0.000000 0.000000
					}
				}
				JOINT mixamorig:Hood0
				{
					OFFSET 0.001381 14.430473 -5.423190
					CHANNELS 3 Zrotation Yrotation Xrotation
					JOINT mixamorig:Hood1
					{
						OFFSET 0.001672 -5.553818 -5.895096
						CHANNELS 3 Zrotation Yrotation Xrotation
						JOINT mixamorig:Hood2
						{
							OFFSET -0.000161 -8.380455 0.763632
							CHANNELS 3 Zrotation Yrotation Xrotation
							End Site
							{
								OFFSET 0.000000 0.000000 0.000000
							}
						}
					}
				}
				JOINT mixamorig:RightShoulder
				{
					OFFSET -4.765170 7.323801 -1.972894
					CHANNELS 3 Zrotation Yrotation Xrotation
					JOINT mixamorig:RightArm
					{
						OFFSET -8.083729 0.939999 -2.176473
						CHANNELS 3 Zrotation Yrotation Xrotation
						JOINT mixamorig:RightForeArm
						{
							OFFSET -31.292198 0.000006 -0.000001
							CHANNELS 3 Zrotation Yrotation Xrotation
							JOINT mixamorig:RightHand
							{
								OFFSET -31.723610 -0.000015 0.000001
								CHANNELS 3 Zrotation Yrotation Xrotation
								JOINT mixamorig:RightHandThumb1
								{
									OFFSET -2.902702 -2.560997 4.416483
									CHANNELS 3 Zrotation Yrotation Xrotation
									JOINT mixamorig:RightHandThumb2
									{
										OFFSET -2.339806 -1.346001 1.355854
										CHANNELS 3 Zrotation Yrotation Xrotation
										JOINT mixamorig:RightHandThumb3
										{
											OFFSET -2.219788 -1.275993 1.286288
											CHANNELS 3 Zrotation Yrotation Xrotation
											JOINT mixamorig:RightHandThumb4
											{
												OFFSET -2.285805 -1.315025 1.324511
												CHANNELS 3 Zrotation Yrotation Xrotation
												End Site
												{
													OFFSET 0.000000 0.000000 0.000000
												}
											}
										}
									}
								}
								JOINT mixamorig:RightHandIndex1
								{
									OFFSET -8.585098 -0.644997 3.119853
									CHANNELS 3 Zrotation Yrotation Xrotation
									JOINT mixamorig:RightHandIndex2
									{
										OFFSET -3.348602 0.000000 0.000030
										CHANNELS 3 Zrotation Yrotation Xrotation
										JOINT mixamorig:RightHandIndex3
										{
											OFFSET -3.314499 0.000000 0.000050
											CHANNELS 3 Zrotation Yrotation Xrotation
											JOINT mixamorig:RightHandIndex4
											{
												OFFSET -2.937897 0.000000 0.000000
												CHANNELS 3 Zrotation Yrotation Xrotation
												End Site
												{
													OFFSET 0.000000 0.000000 0.000000
												}
											}
										}
									}
								}
								JOINT mixamorig:RightHandMiddle1
								{
									OFFSET -8.140701 -0.002998 -0.000071
									CHANNELS 3 Zrotation Yrotation Xrotation
									JOINT mixamorig:RightHandMiddle2
									{
										OFFSET -4.166290 0.000000 0.000030
										CHANNELS 3 Zrotation Yrotation Xrotation
										JOINT mixamorig:RightHandMiddle3
										{
											OFFSET -3.018105 0.000000 0.000032
											CHANNELS 3 Zrotation Yrotation Xrotation
											JOINT mixamorig:RightHandMiddle4
											{
												OFFSET -4.093704 0.000000 0.000000
												CHANNELS 3 Zrotation Yrotation Xrotation
												End Site
												{
													OFFSET 0.000000 0.000000 0.000000
												}
											}
										}
									}
								}
								JOINT mixamorig:RightHandRing1
								{
									OFFSET -8.587799 -0.033997 -2.884227
									CHANNELS 3 Zrotation Yrotation Xrotation
									JOINT mixamorig:RightHandRing2
									{
										OFFSET -3.671211 0.000000 0.000010
										CHANNELS 3 Zrotation Yrotation Xrotation
										JOINT mixamorig:RightHandRing3
										{
											OFFSET -2.728790 0.000000 0.000020
											CHANNELS 3 Zrotation Yrotation Xrotation
											JOINT mixamorig:RightHandRing4
											{
												OFFSET -3.622398 0.000000 0.000000
												CHANNELS 3 Zrotation Yrotation Xrotation
												End Site
												{
													OFFSET 0.000000 0.000000 0.000000
												}
											}
										}
									}
								}
								JOINT mixamorig:RightHandPinky1
								{
									OFFSET -7.870697 -0.678001 -5.213128
									CHANNELS 3 Zrotation Yrotation Xrotation
									JOINT mixamorig:RightHandPinky2
									{
										OFFSET -3.068512 0.000000 0.000000
										CHANNELS 3 Zrotation Yrotation Xrotation
										JOINT mixamorig:RightHandPinky3
										{
											OFFSET -2.395988 0.000000 0.000050
											CHANNELS 3 Zrotation Yrotation Xrotation
											JOINT mixamorig:RightHandPinky4
											{
												OFFSET -2.848999 0.000000 0.000000
												CHANNELS 3 Zrotation Yrotation Xrotation
												End Site
												{
													OFFSET 0.000000 0.000000 0.000000
												}
											}
										}
									}
								}
							}
							JOINT mixamorig:Right_Sleeve
							{
								OFFSET -19.653206 -0.000015 0.000001
								CHANNELS 3 Zrotation Yrotation Xrotation
								End Site
								{
									OFFSET 0.000000 0.000000 0.000000
								}
							}
						}
					}
				}
			}
		}
		JOINT mixamorig:Belly1
		{
			OFFSET 0.212380 1.592979 3.163679
			CHANNELS 3 Zrotation Yrotation Xrotation
			End Site
			{
				OFFSET 0.000000 0.000000 0.000000
			}
		}
	}
	JOINT mixamorig:LeftUpLeg
	{
		OFFSET 11.866977 -9.376379 -2.439418
		CHANNELS 3 Zrotation Yrotation Xrotation
		JOINT mixamorig:LeftLeg
		{
			OFFSET -0.000001 -32.909193 0.854440
			CHANNELS 3 Zrotation Yrotation Xrotation
			JOINT mixamorig:LeftFoot
			{
				OFFSET 0.000001 -31.923828 -3.032456
				CHANNELS 3 Zrotation Yrotation Xrotation
				JOINT mixamorig:LeftToeBase
				{
					OFFSET 0.000006 -12.942684 13.909951
					CHANNELS 3 Zrotation Yrotation Xrotation
					JOINT mixamorig:LeftToe_End
					{
						OFFSET 0.000011 0.111664 5.998963
						CHANNELS 3 Zrotation Yrotation Xrotation
						End Site
						{
							OFFSET 0.000000 0.000000 0.000000
						}
					}
				}
			}
		}
		JOINT mixamorig:Left_Butt1
		{
			OFFSET -6.630216 1.454788 -3.127206
			CHANNELS 3 Zrotation Yrotation Xrotation
			End Site
			{
				OFFSET 0.000000 0.000000 0.000000
			}
		}
		JOINT mixamorig:Left_ShortSleeve
		{
			OFFSET 0.000000 -15.493900 0.402277
			CHANNELS 3 Zrotation Yrotation Xrotation
			End Site
			{
				OFFSET 0.000000 0.000000 0.000000
			}
		}
	}
	JOINT mixamorig:RightUpLeg
	{
		OFFSET -11.867000 -9.376365 -2.439418
		CHANNELS 3 Zrotation Yrotation Xrotation
		JOINT mixamorig:RightLeg
		{
			OFFSET -0.000001 -32.909200 0.854441
			CHANNELS 3 Zrotation Yrotation Xrotation
			JOINT mixamorig:RightFoot
			{
				OFFSET 0.000002 -31.923800 -3.032454
				CHANNELS 3 Zrotation Yrotation Xrotation
				JOINT mixamorig:RightToeBase
				{
					OFFSET 0.000009 -12.942621 13.910019
					CHANNELS 3 Zrotation Yrotation Xrotation
					JOINT mixamorig:RightToe_End
					{
						OFFSET -0.000007 0.111696 5.998960
						CHANNELS 3 Zrotation Yrotation Xrotation
						End Site
						{
							OFFSET 0.000000 0.000000 0.000000
						}
					}
				}
			}
		}
		JOINT mixamorig:Right_Butt1
		{
			OFFSET 6.630730 1.454857 -3.127160
			CHANNELS 3 Zrotation Yrotation Xrotation
			End Site
			{
				OFFSET 0.000000 0.000000 0.000000
			}
		}
		JOINT mixamorig:Right_ShortSleeve
		{
			OFFSET -0.000001 -15.493950 0.402279
			CHANNELS 3 Zrotation Yrotation Xrotation
			End Site
			{
				OFFSET 0.000000 0.000000 0.000000
			}
		}
	}
}
MOTION
Frames: 2
Frame Time: 0.016667
0.452195 86.311035 2.095353 -2.773615 -7.169397 -3.402938 2.090631 1.566217 3.362209 1.410108 0.717110 1.131096 1.402591 0.757695 1.106485 0.474396 0.348770 5.598820 -0.264334 1.351713 -7.555273 0.000000 0.000000 0.000000 0.000000 0.000000 0.000000 0.000000 0.000000 0.000000 0.000000 0.000000 0.000000 0.000000 0.000000 0.000000 0.000000 0.000000 0.000000 0.000000 0.000000 0.000000 0.000000 0.000000 0.000000 0.000000 0.000000 0.000000 0.000000 0.000000 0.000000 0.000000 0.000000 0.000000 0.000000 0.000000 0.000000 0.000000 0.000000 0.000000 0.000000 0.000000 0.000000 0.000000 0.000000 0.000000 0.000000 0.000000 0.000000 0.000000 0.000000 0.000000 0.000000 0.000000 0.000000 0.000000 0.000000 0.000000 0.000000 0.000000 0.000000 -7.060729 -5.154090 3.928811 -60.890451 2.569966 20.537068 -6.375872 -4.862634 0.314963 -4.430630 -4.512192 -32.928693 4.741806 2.262476 -0.412993 23.241974 20.020931 19.851451 7.938529 5.554476 -13.158227 0.000001 0.000005 0.000004 -7.609764 -0.961002 0.148315 -17.378131 1.737854 -0.265419 -8.039431 0.813020 -0.057075 0.000001 -0.000000 0.000001 -15.738442 2.528561 -0.793637 -17.407935 1.740531 -0.266341 -18.413654 1.837059 -0.297712 0.000000 0.000001 0.000000 -21.187774 3.430948 -1.183618 -20.912215 2.076602 -0.383204 -17.868799 1.784652 -0.280526 0.000000 -0.000001 -0.000001 -27.185174 5.344250 -1.711146 -17.407893 1.741288 -0.266430 -16.506458 1.652028 -0.239503 0.000002 0.000001 0.000000 0.000001 0.000001 0.000000 0.000000 0.000000 0.000005 0.000000 0.000000 -0.000002 0.000000 0.000000 -0.000003 0.000000 0.000000 0.000001 0.000000 0.000000 0.000001 -0.000001 0.000000 0.000000 0.000000 0.000000 0.000003 0.000000 0.000000 0.000002 14.939636 14.947258 5.005979 57.019590 3.160927 29.996526 6.030648 8.679491 0.214358 6.538095 1.842990 -20.050846 -4.137388 -0.345340 -1.576436 -24.239690 -23.975748 22.215662 -11.349181 -6.745113 -14.510835 -0.000002 0.000002 0.000001 6.850851 1.255735 0.188003 17.414075 -1.382053 -0.211464 8.059667 -0.646472 -0.045484 -0.000003 -0.000002 -0.000001 15.037117 -2.084196 -0.701140 17.438849 -1.383766 -0.212073 18.448293 -1.460309 -0.237064 0.000000 -0.000003 -0.000001 20.512888 -2.878207 -1.044931 20.949849 -1.650842 -0.305126 17.898269 -1.418413 -0.223315 -0.000001 -0.000002 0.000000 26.527158 -4.685333 -1.505824 17.437177 -1.384591 -0.212169 16.533381 -1.312635 -0.190544 0.000001 -0.000001 -0.000000 0.000000 0.000000 0.000002 0.000000 0.000000 0.000000 5.041767 15.512812 -12.778098 4.844181 1.243645 20.799854 -5.605579 0.990514 -3.598230 -0.000004 0.000012 -4.931475 0.000000 0.000000 -0.000001 -0.004890 0.187827 -0.002320 0.000000 -0.000001 0.000000 4.884278 -10.298609 2.279587 -3.856665 -9.660330 3.378228 0.895956 -1.355894 -2.188368 -0.000007 0.000009 -7.276115 0.000000 0.000001 0.000000 0.004885 -0.188066 -0.002324 0.000000 0.000000 0.000000 
0.366960 86.274216 2.147926 -2.501630 -7.008822 -3.382542 1.941175 1.578414 3.343077 1.350568 0.715454 1.127393 1.343167 0.755332 1.103122 0.463364 0.374842 5.489071 -0.268723 1.406644 -7.608382 0.000000 0.000000 0.000000 0.000000 0.000000 0.000000 0.000000 0.000000 0.000000 0.000000 0.000000 0.000000 0.000000 0.000000 0.000000 0.000000 0.000000 0.000000 0.000000 0.000000 0.000000 0.000000 0.000000 0.000000 0.000000 0.000000 0.000000 0.000000 0.000000 0.000000 0.000000 0.000000 0.000000 0.000000 0.000000 0.000000 0.000000 0.000000 0.000000 0.000000 0.000000 0.000000 0.000000 0.000000 0.000000 0.000000 0.000000 0.000000 0.000000 0.000000 0.000000 0.000000 0.000000 0.000000 0.000000 0.000000 0.000000 0.000000 0.000000 0.000000 -7.100254 -5.160271 3.929772 -60.684877 2.724012 20.164026 -6.377690 -5.059758 0.317995 -4.451241 -4.565667 -31.996853 4.788308 2.117972 -0.415798 22.649974 19.734669 19.424285 8.166102 5.524405 -13.223028 0.000001 0.000005 -0.000001 -7.284665 -0.988356 0.206156 -17.911098 1.789395 -0.281818 -9.085885 0.918093 -0.072880 0.000002 0.000000 -0.000001 -16.147484 2.570808 -0.821338 -18.310743 1.827723 -0.294446 -18.524249 1.847712 -0.301261 0.000004 0.000001 0.000001 -22.199470 3.469307 -1.260516 -21.445242 2.127005 -0.402751 -17.951899 1.792682 -0.283115 0.000000 0.000000 0.000000 -28.076284 5.387578 -1.907147 -18.324755 1.829830 -0.294977 -17.489296 1.747402 -0.268663 0.000001 0.000000 0.000000 0.000001 0.000000 0.000000 0.000000 0.000000 0.000007 0.000000 0.000000 0.000000 0.000000 0.000000 0.000000 0.000000 0.000000 0.000001 0.000000 0.000000 0.000001 -0.000001 0.000000 0.000003 0.000000 0.000000 0.000001 0.000000 0.000000 0.000002 14.889687 14.914553 4.994545 56.836453 3.062036 29.534095 6.030389 8.631794 0.214086 6.544544 1.824571 -19.224471 -4.137400 -0.345288 -1.576430 -24.239464 -23.975593 22.215463 -11.349231 -6.745139 -14.510829 0.000001 0.000003 0.000002 7.485609 1.198217 0.196124 18.490557 -1.464538 -0.238183 9.168500 -0.734813 -0.058856 -0.000002 -0.000001 -0.000002 15.621596 -2.125169 -0.736100 18.487908 -1.464117 -0.238146 19.627123 -1.550058 -0.268032 -0.000001 -0.000001 -0.000002 21.055629 -2.916078 -1.080742 22.026636 -1.731506 -0.336912 19.079066 -1.508608 -0.253473 -0.000001 -0.000001 0.000001 27.079860 -4.715868 -1.537262 18.489648 -1.465238 -0.238313 17.651071 -1.398686 -0.216998 0.000000 0.000000 -0.000001 0.000000 0.000000 -0.000002 0.000000 0.000000 0.000000 4.783218 15.512923 -12.705591 4.807235 1.199765 20.478369 -5.606684 0.929598 -3.410368 -0.000004 -0.000003 -4.911322 0.000000 0.000001 0.000000 -0.004889 0.187828 -0.002315 -0.000000 -0.000001 0.000001 4.669506 -10.137468 0.827153 -4.458457 -9.715323 6.911700 1.230664 -1.427270 -4.175525 -0.000010 -0.000003 -7.366745 0.000000 -0.000001 -0.000001 0.004884 -0.188067 -0.002325 0.000000 0.000000 0.000000 
